<svg xmlns="http://www.w3.org/2000/svg" width="256" height="256" viewBox="0 0 256 256">
  <rect width="256" height="256" fill="#F7DF1E"></rect>
  <path d="M67.2 214.4L82.9 204.7C85.6 209.4 88 213.1 93.7 213.1C99.1 213.1 102.6 210.5 102.6 203.8V117.2H121.8V204.1C121.8 221.2 110.3 229.8 94.3 229.8C80.2 229.8 72 222.6 67.2 214.4ZM137.3 213.1L153 203.6C156.4 209 160.6 213.4 167.8 213.4C173.7 213.4 177.5 210.5 177.5 206.2C177.5 201.2 174.1 199.5 167.2 196.3L162.8 194.4C152.5 189.8 145.3 184.7 145.3 171.3C145.3 158.8 155.1 149.8 169 149.8C178.9 149.8 186.2 153.2 191.7 162.3L176.6 171.8C174.2 167.8 171.5 166.1 167.8 166.1C164 166.1 161.4 168.7 161.4 171.8C161.4 176 164 177.7 170.6 180.7L175 182.6C188.2 188.5 195.4 193.3 195.4 206.3C195.4 220.2 183.8 229.9 168.2 229.9C152.3 229.9 143.1 222.4 137.3 213.1Z" fill="#000"></path>
</svg>
